<svg xmlns="http://www.w3.org/2000/svg" width="18.981" height="23.74" viewBox="0 0 18.981 23.74">
  <g id="Icon_ionic-ios-notifications" data-name="Icon ionic-ios-notifications" transform="translate(-6.761 -3.93)">
    <path id="Tracé_6" data-name="Tracé 6" d="M17.464,31.481c1.845,0,2.854-1.305,2.854-3.145H14.6C14.6,30.175,15.613,31.481,17.464,31.481Z" transform="translate(-1.224 -3.81)" fill="#fff"/>
    <path id="Tracé_7" data-name="Tracé 7" d="M25.5,21.511c-.914-1.2-2.712-1.911-2.712-7.3,0-5.536-2.445-7.761-4.723-8.3-.214-.053-.368-.125-.368-.35V5.39a1.448,1.448,0,1,0-2.9,0v.172c0,.22-.154.3-.368.35-2.284.54-4.723,2.759-4.723,8.3,0,5.394-1.8,6.094-2.712,7.3A1.178,1.178,0,0,0,7.944,23.4h16.62A1.178,1.178,0,0,0,25.5,21.511Z" transform="translate(0)" fill="#fff"/>
  </g>
</svg>
